<?xml version="1.0" encoding="utf-8"?>
<!-- Generator: Adobe Illustrator 16.0.0, SVG Export Plug-In . SVG Version: 6.00 Build 0)  -->
<!DOCTYPE svg PUBLIC "-//W3C//DTD SVG 1.1//EN" "http://www.w3.org/Graphics/SVG/1.1/DTD/svg11.dtd">
<svg version="1.1" id="Layer_1" xmlns="http://www.w3.org/2000/svg" xmlns:xlink="http://www.w3.org/1999/xlink" x="0px" y="0px"
	 width="800px" height="171px" viewBox="0 0 800 171" enable-background="new 0 0 800 171" xml:space="preserve">
<g>
	<polygon fill="#FFCB05" points="800,0 800,171 4,171 4,0 800,0 	"/>
	<path fill="#D71635" d="M143.981,30.708L118.55,64.342c0,0,131.842,0,138.604,0c7.006,0,6.914,2.592,3.49,7.107
		c-3.477,4.585-9.297,12.557-12.84,17.211c-1.798,2.364-5.048,6.669,5.722,6.669c11.388,0,56.681,0,56.681,0
		s9.136-12.103,16.794-22.219c10.42-13.763,0.903-42.402-36.343-42.402C257.322,30.708,143.981,30.708,143.981,30.708
		L143.981,30.708z"/>
	<path fill="#D71635" d="M108.26,140.281l51.081-67.563c0,0,56.627,0.001,63.39,0.001c7.006,0,6.915,2.591,3.49,7.107
		c-3.477,4.585-9.394,12.472-12.936,17.129c-1.798,2.362-5.048,6.675,5.721,6.675c11.388,0,84.92,0,84.92,0
		c-7.062,9.418-29.97,36.65-71.105,36.65C199.482,140.281,108.26,140.281,108.26,140.281L108.26,140.281z"/>
	<path fill="#D71635" d="M400.804,103.623l-27.7,36.658h-73.071c0,0,27.685-36.65,27.709-36.65L400.804,103.623L400.804,103.623z"/>
	<polygon fill="#D71635" points="512.747,95.329 334.02,95.329 382.894,30.708 455.942,30.708 427.93,67.763 460.538,67.763 
		488.562,30.708 561.604,30.708 512.747,95.329 	"/>
	<path fill="#D71635" d="M506.472,103.631l-27.714,36.65h-73.044c0,0,27.687-36.65,27.712-36.65H506.472L506.472,103.631z"/>
	<polygon fill="#D71635" points="4,118.083 111.643,118.083 105.763,125.871 4,125.871 4,118.083 	"/>
	<polygon fill="#D71635" points="4,103.631 122.58,103.631 116.688,111.406 4,111.406 4,103.631 	"/>
	<polygon fill="#D71635" points="4,132.545 100.713,132.545 94.86,140.281 4,140.281 4,132.545 	"/>
	<polygon fill="#D71635" points="800.002,125.871 692.77,125.871 698.654,118.084 800.002,118.084 800.002,125.871 	"/>
	<polygon fill="#D71635" points="800.002,140.281 681.869,140.291 687.722,132.545 800.002,132.545 800.002,140.281 	"/>
	<polygon fill="#D71635" points="709.578,103.631 800.002,103.631 800.002,111.41 703.701,111.416 709.578,103.631 	"/>
	<path fill="#D71635" d="M662.77,30.708L613.9,95.329h-77.401c0,0,48.877-64.621,48.901-64.621H662.77L662.77,30.708z"/>
	<path fill="#D71635" d="M530.234,103.631c0,0-5.341,7.104-7.934,10.518c-9.177,12.069-1.064,26.133,28.879,26.133
		c34.58,0,117.313,0,117.313,0l27.711-36.65H530.234L530.234,103.631z"/>
</g>
</svg>
